# xmcd CD database file
#
# Track frame offsets:
#	150
#	21370
#	48310
#	73695
#	92217
#	113637
#	138630
#	161790
#	175805
#	203545
#	222407
#
# Disc length: 3403 seconds
#
# Revision: 0
# Processed by: cddbd v1.5.2PL0 Copyright (c) Steve Scherf et al.
# Submitted via: CDex 1.70beta2
#
DISCID=9f0d490b
DTITLE=Chris Hunter - Goose The Pooche
DYEAR=2002
DGENRE=Jazz
TTITLE0=Goose The Pooche
TTITLE1=Just Friends
TTITLE2=Big Noise
TTITLE3=Parker's Mood
TTITLE4=Cherokee
TTITLE5=Moose The Mooche
TTITLE6=My Little Suede Shoes
TTITLE7=Billie's Bouce
TTITLE8=Terrible Edith
TTITLE9=Scrapple From The Apple
TTITLE10=All The Things You Are
EXTD=YEAR: 2002
EXTT0=
EXTT1=
EXTT2=
EXTT3=
EXTT4=
EXTT5=
EXTT6=
EXTT7=
EXTT8=
EXTT9=
EXTT10=
PLAYORDER=
